<svg width="40" height="39" viewBox="0 0 40 39" fill="none" xmlns="http://www.w3.org/2000/svg">
<path d="M16.803 39C16.3073 39 15.8612 38.8296 15.4647 38.4888C15.1177 38.0992 14.9442 37.661 14.9442 37.1742V23.9551H1.85874C1.36307 23.9551 0.916976 23.7846 0.520446 23.4438C0.173482 23.0543 0 22.6161 0 22.1292V16.5056C0 15.97 0.173482 15.5318 0.520446 15.191C0.86741 14.8015 1.31351 14.6067 1.85874 14.6067H14.9442V1.82584C14.9442 1.29026 15.1177 0.852059 15.4647 0.511237C15.8612 0.170411 16.3073 0 16.803 0H23.197C23.7423 0 24.1884 0.170411 24.5353 0.511237C24.9318 0.852059 25.1301 1.29026 25.1301 1.82584V14.6067H38.0669C38.6121 14.6067 39.0582 14.8015 39.4052 15.191C39.8017 15.5318 40 15.97 40 16.5056V22.1292C40 22.6648 39.8017 23.103 39.4052 23.4438C39.0582 23.7846 38.6121 23.9551 38.0669 23.9551H25.1301V37.1742C25.1301 37.7097 24.9318 38.1479 24.5353 38.4888C24.1884 38.8296 23.7423 39 23.197 39H16.803Z" fill="#FF6633"/>
</svg>
